<svg class="svg-icon" style="width: 1em; height: 1em;vertical-align: middle;fill: currentColor;overflow: hidden;" viewBox="0 0 1024 1024" version="1.1" xmlns="http://www.w3.org/2000/svg"><path d="M516.608 509.952m-502.272 0a502.272 502.272 0 1 0 1004.544 0 502.272 502.272 0 1 0-1004.544 0Z" fill="#F04D4E" /><path d="M204.8 302.08h624.64v404.48H204.8z" fill="#FFFFFF" /><path d="M121.344 713.216v12.288s11.264 12.288 37.376 12.288h730.624s19.968-6.144 28.672-12.288v-12.288H121.344z" fill="#E6E6E6" /><path d="M209.92 287.232zM206.336 288.768s0.512 0 0.512-0.512c-0.512 0-0.512 0-0.512 0.512zM200.192 701.44v-1.536 1.536zM210.944 286.72h1.536-1.536z" fill="#929397" /><path d="M826.88 286.72h-473.088l29.184 25.6H814.08v373.76h-31.232l26.624 25.6h17.408c6.656 0 12.8-4.608 12.8-11.776v-400.896c0-6.656-6.144-12.288-12.8-12.288z" fill="#333333" /><path d="M205.824 288.768c-3.584 2.048-5.632 6.144-5.632 10.752 0 0 0.512-7.168 5.632-10.752z" fill="#929397" /><path d="M200.192 701.44c1.024 12.288 12.288 11.264 12.288 11.264-6.144 0-11.776-5.12-12.288-11.264zM206.848 288.256c1.024-0.512 2.048-1.024 3.072-1.024-1.024 0-2.048 0.512-3.072 1.024zM205.824 288.768zM209.92 287.232h1.024c-0.512-0.512-0.512 0-1.024 0z" fill="#58585A" /><path d="M220.16 686.08v-373.76h163.328l-29.184-25.6h-143.872c-1.024 0-2.048 0.512-3.072 1.024 0 0-0.512 0-0.512 0.512h-0.512c-5.12 3.584-6.144 10.752-6.144 10.752v400.896c0 0.512 0 0.512 0.512 1.024 0.512 6.144 6.144 10.752 12.8 10.752h596.992l-26.624-25.6H220.16z" fill="#58585A" /><path d="M870.4 445.44c0 19.968-15.872 35.84-35.84 35.84h-204.8c-19.968 0-35.84-15.872-35.84-35.84v-204.8c0-19.968 15.872-35.84 35.84-35.84h204.8c19.968 0 35.84 15.872 35.84 35.84v204.8z" fill="#09435B" /><path d="M588.8 495.104c0 20.48-16.896 37.376-37.376 37.376h-211.968c-20.48 0-37.376-16.896-37.376-37.376v-211.968c0-20.48 16.896-37.376 37.376-37.376h211.968c20.48 0 37.376 16.896 37.376 37.376V495.104z" fill="#FACC39" /><path d="M593.92 355.328l110.08 94.72L593.92 544.256z" fill="#09435B" /><path d="M588.8 605.696L473.6 507.392 588.8 408.576z" fill="#FACC39" /><path d="M542.72 340.992c0 6.656-5.632 12.288-12.288 12.288h-155.136c-6.656 0-12.288-5.632-12.288-12.288v-6.656c0-6.656 5.632-12.288 12.288-12.288h155.136c6.656 0 12.288 5.632 12.288 12.288v6.656zM542.72 402.432c0 6.656-5.632 12.288-12.288 12.288h-155.136c-6.656 0-12.288-5.632-12.288-12.288v-6.656c0-6.656 5.632-12.288 12.288-12.288h155.136c6.656 0 12.288 5.632 12.288 12.288v6.656zM449.536 455.68c0 7.168-5.12 15.36-11.264 15.36h-71.168c-6.144 0-11.264-8.192-11.264-15.36s5.12-15.36 11.264-15.36h71.168c6.144 0 11.264 8.192 11.264 15.36z" fill="#09435B" /><path d="M819.2 284.672c0 6.656-5.632 12.288-12.288 12.288h-160.256c-6.656 0-12.288-5.632-12.288-12.288v-1.536c0-6.656 5.632-12.288 12.288-12.288h160.256c6.656 0 12.288 5.632 12.288 12.288v1.536zM819.2 346.112c0 6.656-5.632 12.288-12.288 12.288h-160.256c-6.656 0-12.288-5.632-12.288-12.288v-1.536c0-6.656 5.632-12.288 12.288-12.288h160.256c6.656 0 12.288 5.632 12.288 12.288v1.536zM727.04 409.6c0 5.632-4.608 10.24-10.24 10.24h-71.68c-5.632 0-10.24-4.608-10.24-10.24s4.608-10.24 10.24-10.24h71.68c5.632 0 10.24 4.608 10.24 10.24z" fill="#FACC39" /></svg>